<mxfile host="app.diagrams.net" agent="Mozilla/5.0 (Windows NT 10.0; Win64; x64) AppleWebKit/537.36 (KHTML, like Gecko) Chrome/134.0.0.0 Safari/537.36" version="26.1.1">
  <diagram name="Страница — 1" id="QR_yRDSDNgx4GiCKbLIV">
    <mxGraphModel dx="292" dy="221" grid="1" gridSize="10" guides="1" tooltips="1" connect="1" arrows="1" fold="1" page="1" pageScale="1" pageWidth="1654" pageHeight="1169" math="0" shadow="0">
      <root>
        <mxCell id="0" />
        <mxCell id="1" parent="0" />
        <mxCell id="0fgJyHa2E1ZW9S86TPBl-1" value="Начало" style="ellipse;whiteSpace=wrap;html=1;" parent="1" vertex="1">
          <mxGeometry x="290" y="20" width="120" height="80" as="geometry" />
        </mxCell>
        <mxCell id="0fgJyHa2E1ZW9S86TPBl-3" value="" style="endArrow=classic;html=1;rounded=0;" parent="1" target="0fgJyHa2E1ZW9S86TPBl-4" edge="1">
          <mxGeometry width="50" height="50" relative="1" as="geometry">
            <mxPoint x="350" y="100" as="sourcePoint" />
            <mxPoint x="350" y="120" as="targetPoint" />
          </mxGeometry>
        </mxCell>
        <mxCell id="0fgJyHa2E1ZW9S86TPBl-4" value="setlocale(LC_ALL, &quot;Ru&quot;);" style="rounded=0;whiteSpace=wrap;html=1;" parent="1" vertex="1">
          <mxGeometry x="290" y="120" width="120" height="60" as="geometry" />
        </mxCell>
        <mxCell id="0fgJyHa2E1ZW9S86TPBl-5" value="" style="endArrow=none;dashed=1;html=1;dashPattern=1 3;strokeWidth=2;rounded=0;" parent="1" edge="1">
          <mxGeometry width="50" height="50" relative="1" as="geometry">
            <mxPoint x="350" y="110" as="sourcePoint" />
            <mxPoint x="440" y="110" as="targetPoint" />
          </mxGeometry>
        </mxCell>
        <mxCell id="0fgJyHa2E1ZW9S86TPBl-6" value="" style="endArrow=none;html=1;rounded=0;" parent="1" edge="1">
          <mxGeometry width="50" height="50" relative="1" as="geometry">
            <mxPoint x="440" y="130" as="sourcePoint" />
            <mxPoint x="440" y="90" as="targetPoint" />
          </mxGeometry>
        </mxCell>
        <mxCell id="0fgJyHa2E1ZW9S86TPBl-7" value="" style="endArrow=none;html=1;rounded=0;" parent="1" edge="1">
          <mxGeometry width="50" height="50" relative="1" as="geometry">
            <mxPoint x="440" y="130" as="sourcePoint" />
            <mxPoint x="490" y="130" as="targetPoint" />
          </mxGeometry>
        </mxCell>
        <mxCell id="0fgJyHa2E1ZW9S86TPBl-8" value="#include &amp;lt;iostream&amp;gt;" style="text;html=1;align=center;verticalAlign=middle;whiteSpace=wrap;rounded=0;" parent="1" vertex="1">
          <mxGeometry x="440" y="90" width="120" height="30" as="geometry" />
        </mxCell>
        <mxCell id="0fgJyHa2E1ZW9S86TPBl-10" value="" style="endArrow=none;html=1;rounded=0;" parent="1" edge="1">
          <mxGeometry width="50" height="50" relative="1" as="geometry">
            <mxPoint x="440" y="90" as="sourcePoint" />
            <mxPoint x="490" y="90" as="targetPoint" />
          </mxGeometry>
        </mxCell>
        <mxCell id="0fgJyHa2E1ZW9S86TPBl-11" value="" style="endArrow=classic;html=1;rounded=0;" parent="1" target="0fgJyHa2E1ZW9S86TPBl-12" edge="1">
          <mxGeometry width="50" height="50" relative="1" as="geometry">
            <mxPoint x="350" y="180" as="sourcePoint" />
            <mxPoint x="350" y="200" as="targetPoint" />
          </mxGeometry>
        </mxCell>
        <mxCell id="0fgJyHa2E1ZW9S86TPBl-12" value="cout &lt;&lt; &quot;Введите размер массива: &quot;;" style="shape=parallelogram;perimeter=parallelogramPerimeter;whiteSpace=wrap;html=1;fixedSize=1;" parent="1" vertex="1">
          <mxGeometry x="290" y="200" width="120" height="60" as="geometry" />
        </mxCell>
        <mxCell id="0fgJyHa2E1ZW9S86TPBl-13" value="" style="endArrow=classic;html=1;rounded=0;" parent="1" target="0fgJyHa2E1ZW9S86TPBl-14" edge="1">
          <mxGeometry width="50" height="50" relative="1" as="geometry">
            <mxPoint x="350" y="260" as="sourcePoint" />
            <mxPoint x="350" y="280" as="targetPoint" />
          </mxGeometry>
        </mxCell>
        <mxCell id="0fgJyHa2E1ZW9S86TPBl-14" value="cin &gt;&gt; size;" style="shape=parallelogram;perimeter=parallelogramPerimeter;whiteSpace=wrap;html=1;fixedSize=1;" parent="1" vertex="1">
          <mxGeometry x="290" y="280" width="120" height="60" as="geometry" />
        </mxCell>
        <mxCell id="0fgJyHa2E1ZW9S86TPBl-15" value="" style="endArrow=classic;html=1;rounded=0;" parent="1" target="0fgJyHa2E1ZW9S86TPBl-16" edge="1">
          <mxGeometry width="50" height="50" relative="1" as="geometry">
            <mxPoint x="350" y="340" as="sourcePoint" />
            <mxPoint x="350" y="360" as="targetPoint" />
          </mxGeometry>
        </mxCell>
        <mxCell id="0fgJyHa2E1ZW9S86TPBl-16" value="int* arr = new int[size];" style="rounded=0;whiteSpace=wrap;html=1;" parent="1" vertex="1">
          <mxGeometry x="290" y="360" width="120" height="60" as="geometry" />
        </mxCell>
        <mxCell id="0fgJyHa2E1ZW9S86TPBl-17" value="" style="endArrow=classic;html=1;rounded=0;" parent="1" edge="1">
          <mxGeometry width="50" height="50" relative="1" as="geometry">
            <mxPoint x="350" y="420" as="sourcePoint" />
            <mxPoint x="350" y="440" as="targetPoint" />
          </mxGeometry>
        </mxCell>
        <mxCell id="0fgJyHa2E1ZW9S86TPBl-18" value="cout &lt;&lt; &quot;Введите элементы массива:&quot; &lt;&lt; endl;" style="shape=parallelogram;perimeter=parallelogramPerimeter;whiteSpace=wrap;html=1;fixedSize=1;" parent="1" vertex="1">
          <mxGeometry x="260" y="440" width="180" height="60" as="geometry" />
        </mxCell>
        <mxCell id="0fgJyHa2E1ZW9S86TPBl-19" value="" style="endArrow=classic;html=1;rounded=0;" parent="1" edge="1">
          <mxGeometry width="50" height="50" relative="1" as="geometry">
            <mxPoint x="350" y="500" as="sourcePoint" />
            <mxPoint x="350" y="520" as="targetPoint" />
          </mxGeometry>
        </mxCell>
        <mxCell id="0fgJyHa2E1ZW9S86TPBl-20" value="for (int i = 0; i &lt; size; ++i)" style="shape=hexagon;perimeter=hexagonPerimeter2;whiteSpace=wrap;html=1;fixedSize=1;" parent="1" vertex="1">
          <mxGeometry x="290" y="520" width="120" height="80" as="geometry" />
        </mxCell>
        <mxCell id="0fgJyHa2E1ZW9S86TPBl-21" value="" style="endArrow=classic;html=1;rounded=0;" parent="1" edge="1">
          <mxGeometry width="50" height="50" relative="1" as="geometry">
            <mxPoint x="350" y="600" as="sourcePoint" />
            <mxPoint x="350" y="620" as="targetPoint" />
          </mxGeometry>
        </mxCell>
        <mxCell id="0fgJyHa2E1ZW9S86TPBl-22" value="cin &gt;&gt; arr[i];" style="shape=parallelogram;perimeter=parallelogramPerimeter;whiteSpace=wrap;html=1;fixedSize=1;" parent="1" vertex="1">
          <mxGeometry x="290" y="620" width="120" height="60" as="geometry" />
        </mxCell>
        <mxCell id="0fgJyHa2E1ZW9S86TPBl-23" value="" style="endArrow=classic;html=1;rounded=0;entryX=0;entryY=0.5;entryDx=0;entryDy=0;" parent="1" target="0fgJyHa2E1ZW9S86TPBl-20" edge="1">
          <mxGeometry width="50" height="50" relative="1" as="geometry">
            <mxPoint x="350" y="680" as="sourcePoint" />
            <mxPoint x="240" y="560" as="targetPoint" />
            <Array as="points">
              <mxPoint x="350" y="740" />
              <mxPoint x="240" y="740" />
              <mxPoint x="240" y="560" />
            </Array>
          </mxGeometry>
        </mxCell>
        <mxCell id="0fgJyHa2E1ZW9S86TPBl-24" value="" style="endArrow=classic;html=1;rounded=0;" parent="1" edge="1">
          <mxGeometry width="50" height="50" relative="1" as="geometry">
            <mxPoint x="410" y="560" as="sourcePoint" />
            <mxPoint x="360" y="800" as="targetPoint" />
            <Array as="points">
              <mxPoint x="470" y="560" />
              <mxPoint x="470" y="760" />
              <mxPoint x="360" y="760" />
            </Array>
          </mxGeometry>
        </mxCell>
        <mxCell id="0fgJyHa2E1ZW9S86TPBl-25" value="int indexToDelete;" style="rounded=0;whiteSpace=wrap;html=1;" parent="1" vertex="1">
          <mxGeometry x="300" y="800" width="120" height="60" as="geometry" />
        </mxCell>
        <mxCell id="0fgJyHa2E1ZW9S86TPBl-26" value="" style="endArrow=classic;html=1;rounded=0;" parent="1" edge="1">
          <mxGeometry width="50" height="50" relative="1" as="geometry">
            <mxPoint x="360" y="860" as="sourcePoint" />
            <mxPoint x="360" y="880" as="targetPoint" />
          </mxGeometry>
        </mxCell>
        <mxCell id="0fgJyHa2E1ZW9S86TPBl-27" value="cout &amp;lt;&amp;lt; &quot;Введите индекс элемента для удаления: &quot;;" style="shape=parallelogram;perimeter=parallelogramPerimeter;whiteSpace=wrap;html=1;fixedSize=1;" parent="1" vertex="1">
          <mxGeometry x="300" y="880" width="120" height="60" as="geometry" />
        </mxCell>
        <mxCell id="0fgJyHa2E1ZW9S86TPBl-28" value="" style="endArrow=classic;html=1;rounded=0;" parent="1" edge="1">
          <mxGeometry width="50" height="50" relative="1" as="geometry">
            <mxPoint x="360" y="940" as="sourcePoint" />
            <mxPoint x="360" y="960" as="targetPoint" />
          </mxGeometry>
        </mxCell>
        <mxCell id="0fgJyHa2E1ZW9S86TPBl-29" value="cin &amp;gt;&amp;gt; indexToDelete;" style="shape=parallelogram;perimeter=parallelogramPerimeter;whiteSpace=wrap;html=1;fixedSize=1;" parent="1" vertex="1">
          <mxGeometry x="285" y="960" width="150" height="60" as="geometry" />
        </mxCell>
        <mxCell id="0fgJyHa2E1ZW9S86TPBl-30" value="" style="endArrow=classic;html=1;rounded=0;" parent="1" target="0fgJyHa2E1ZW9S86TPBl-31" edge="1">
          <mxGeometry width="50" height="50" relative="1" as="geometry">
            <mxPoint x="360" y="1020" as="sourcePoint" />
            <mxPoint x="360" y="1040" as="targetPoint" />
          </mxGeometry>
        </mxCell>
        <mxCell id="0fgJyHa2E1ZW9S86TPBl-31" value="arr = deleteElement(arr, size, indexToDelete);" style="rounded=0;whiteSpace=wrap;html=1;" parent="1" vertex="1">
          <mxGeometry x="300" y="1040" width="120" height="60" as="geometry" />
        </mxCell>
        <mxCell id="0fgJyHa2E1ZW9S86TPBl-32" value="" style="endArrow=classic;html=1;rounded=0;" parent="1" edge="1">
          <mxGeometry width="50" height="50" relative="1" as="geometry">
            <mxPoint x="360" y="1100" as="sourcePoint" />
            <mxPoint x="360" y="1120" as="targetPoint" />
          </mxGeometry>
        </mxCell>
        <mxCell id="0fgJyHa2E1ZW9S86TPBl-33" value="cout &amp;lt;&amp;lt; &quot;Массив после удаления элемента: &quot;;" style="shape=parallelogram;perimeter=parallelogramPerimeter;whiteSpace=wrap;html=1;fixedSize=1;" parent="1" vertex="1">
          <mxGeometry x="300" y="1120" width="120" height="60" as="geometry" />
        </mxCell>
        <mxCell id="0fgJyHa2E1ZW9S86TPBl-34" value="" style="endArrow=classic;html=1;rounded=0;" parent="1" target="0fgJyHa2E1ZW9S86TPBl-35" edge="1">
          <mxGeometry width="50" height="50" relative="1" as="geometry">
            <mxPoint x="360" y="1180" as="sourcePoint" />
            <mxPoint x="360" y="1200" as="targetPoint" />
          </mxGeometry>
        </mxCell>
        <mxCell id="0fgJyHa2E1ZW9S86TPBl-35" value="for (int i = 0; i &amp;lt; size; ++i)" style="shape=hexagon;perimeter=hexagonPerimeter2;whiteSpace=wrap;html=1;fixedSize=1;" parent="1" vertex="1">
          <mxGeometry x="300" y="1200" width="120" height="80" as="geometry" />
        </mxCell>
        <mxCell id="0fgJyHa2E1ZW9S86TPBl-36" value="" style="endArrow=classic;html=1;rounded=0;" parent="1" edge="1">
          <mxGeometry width="50" height="50" relative="1" as="geometry">
            <mxPoint x="360" y="1280" as="sourcePoint" />
            <mxPoint x="360" y="1300" as="targetPoint" />
          </mxGeometry>
        </mxCell>
        <mxCell id="0fgJyHa2E1ZW9S86TPBl-37" value="cout &amp;lt;&amp;lt; arr[i] &amp;lt;&amp;lt; &quot; &quot;;" style="shape=parallelogram;perimeter=parallelogramPerimeter;whiteSpace=wrap;html=1;fixedSize=1;" parent="1" vertex="1">
          <mxGeometry x="285" y="1300" width="140" height="60" as="geometry" />
        </mxCell>
        <mxCell id="0fgJyHa2E1ZW9S86TPBl-38" value="" style="endArrow=classic;html=1;rounded=0;entryX=0;entryY=0.5;entryDx=0;entryDy=0;" parent="1" target="0fgJyHa2E1ZW9S86TPBl-35" edge="1">
          <mxGeometry width="50" height="50" relative="1" as="geometry">
            <mxPoint x="360" y="1360" as="sourcePoint" />
            <mxPoint x="240" y="1240" as="targetPoint" />
            <Array as="points">
              <mxPoint x="360" y="1400" />
              <mxPoint x="240" y="1400" />
              <mxPoint x="240" y="1240" />
            </Array>
          </mxGeometry>
        </mxCell>
        <mxCell id="0fgJyHa2E1ZW9S86TPBl-39" value="" style="endArrow=classic;html=1;rounded=0;" parent="1" edge="1">
          <mxGeometry width="50" height="50" relative="1" as="geometry">
            <mxPoint x="420" y="1240" as="sourcePoint" />
            <mxPoint x="360" y="1460" as="targetPoint" />
            <Array as="points">
              <mxPoint x="480" y="1240" />
              <mxPoint x="480" y="1440" />
              <mxPoint x="360" y="1440" />
            </Array>
          </mxGeometry>
        </mxCell>
        <mxCell id="0fgJyHa2E1ZW9S86TPBl-40" value="cout &amp;lt;&amp;lt; endl;" style="shape=parallelogram;perimeter=parallelogramPerimeter;whiteSpace=wrap;html=1;fixedSize=1;" parent="1" vertex="1">
          <mxGeometry x="300" y="1460" width="120" height="60" as="geometry" />
        </mxCell>
        <mxCell id="0fgJyHa2E1ZW9S86TPBl-41" value="" style="endArrow=classic;html=1;rounded=0;" parent="1" edge="1">
          <mxGeometry width="50" height="50" relative="1" as="geometry">
            <mxPoint x="360" y="1520" as="sourcePoint" />
            <mxPoint x="360" y="1540" as="targetPoint" />
          </mxGeometry>
        </mxCell>
        <mxCell id="0fgJyHa2E1ZW9S86TPBl-43" value="int indexToAdd, k;" style="rounded=0;whiteSpace=wrap;html=1;" parent="1" vertex="1">
          <mxGeometry x="300" y="1540" width="120" height="60" as="geometry" />
        </mxCell>
        <mxCell id="0fgJyHa2E1ZW9S86TPBl-44" value="" style="endArrow=classic;html=1;rounded=0;" parent="1" target="0fgJyHa2E1ZW9S86TPBl-45" edge="1">
          <mxGeometry width="50" height="50" relative="1" as="geometry">
            <mxPoint x="360" y="1600" as="sourcePoint" />
            <mxPoint x="360" y="1620" as="targetPoint" />
          </mxGeometry>
        </mxCell>
        <mxCell id="0fgJyHa2E1ZW9S86TPBl-45" value="cout &amp;lt;&amp;lt; &quot;Введите индекс для вставки новых элементов: &quot;;" style="shape=parallelogram;perimeter=parallelogramPerimeter;whiteSpace=wrap;html=1;fixedSize=1;" parent="1" vertex="1">
          <mxGeometry x="265" y="1620" width="190" height="60" as="geometry" />
        </mxCell>
        <mxCell id="0fgJyHa2E1ZW9S86TPBl-46" value="" style="endArrow=classic;html=1;rounded=0;" parent="1" edge="1">
          <mxGeometry width="50" height="50" relative="1" as="geometry">
            <mxPoint x="360" y="1680" as="sourcePoint" />
            <mxPoint x="360" y="1700" as="targetPoint" />
          </mxGeometry>
        </mxCell>
        <mxCell id="0fgJyHa2E1ZW9S86TPBl-47" value="cin &amp;gt;&amp;gt; indexToAdd;" style="shape=parallelogram;perimeter=parallelogramPerimeter;whiteSpace=wrap;html=1;fixedSize=1;" parent="1" vertex="1">
          <mxGeometry x="295" y="1700" width="130" height="60" as="geometry" />
        </mxCell>
        <mxCell id="0fgJyHa2E1ZW9S86TPBl-48" value="" style="endArrow=classic;html=1;rounded=0;" parent="1" edge="1">
          <mxGeometry width="50" height="50" relative="1" as="geometry">
            <mxPoint x="360" y="1760" as="sourcePoint" />
            <mxPoint x="360" y="1780" as="targetPoint" />
          </mxGeometry>
        </mxCell>
        <mxCell id="0fgJyHa2E1ZW9S86TPBl-49" value="cout &amp;lt;&amp;lt; &quot;Введите количество элементов для добавления: &quot;;" style="shape=parallelogram;perimeter=parallelogramPerimeter;whiteSpace=wrap;html=1;fixedSize=1;" parent="1" vertex="1">
          <mxGeometry x="300" y="1780" width="120" height="60" as="geometry" />
        </mxCell>
        <mxCell id="0fgJyHa2E1ZW9S86TPBl-50" value="" style="endArrow=classic;html=1;rounded=0;" parent="1" edge="1">
          <mxGeometry width="50" height="50" relative="1" as="geometry">
            <mxPoint x="360" y="1840" as="sourcePoint" />
            <mxPoint x="360" y="1860" as="targetPoint" />
          </mxGeometry>
        </mxCell>
        <mxCell id="0fgJyHa2E1ZW9S86TPBl-51" value="cin &amp;gt;&amp;gt; k;" style="shape=parallelogram;perimeter=parallelogramPerimeter;whiteSpace=wrap;html=1;fixedSize=1;" parent="1" vertex="1">
          <mxGeometry x="300" y="1860" width="120" height="60" as="geometry" />
        </mxCell>
        <mxCell id="0fgJyHa2E1ZW9S86TPBl-52" value="" style="endArrow=classic;html=1;rounded=0;" parent="1" target="0fgJyHa2E1ZW9S86TPBl-53" edge="1">
          <mxGeometry width="50" height="50" relative="1" as="geometry">
            <mxPoint x="360" y="1920" as="sourcePoint" />
            <mxPoint x="360" y="1940" as="targetPoint" />
          </mxGeometry>
        </mxCell>
        <mxCell id="0fgJyHa2E1ZW9S86TPBl-53" value="int* elementsToAdd = new int[k];" style="rounded=0;whiteSpace=wrap;html=1;" parent="1" vertex="1">
          <mxGeometry x="300" y="1940" width="120" height="60" as="geometry" />
        </mxCell>
        <mxCell id="0fgJyHa2E1ZW9S86TPBl-54" value="" style="endArrow=classic;html=1;rounded=0;" parent="1" target="0fgJyHa2E1ZW9S86TPBl-55" edge="1">
          <mxGeometry width="50" height="50" relative="1" as="geometry">
            <mxPoint x="360" y="2000" as="sourcePoint" />
            <mxPoint x="360" y="2020" as="targetPoint" />
          </mxGeometry>
        </mxCell>
        <mxCell id="0fgJyHa2E1ZW9S86TPBl-55" value="cout &amp;lt;&amp;lt; &quot;Введите элементы для добавления:&quot; &amp;lt;&amp;lt; endl;" style="shape=parallelogram;perimeter=parallelogramPerimeter;whiteSpace=wrap;html=1;fixedSize=1;" parent="1" vertex="1">
          <mxGeometry x="300" y="2020" width="120" height="60" as="geometry" />
        </mxCell>
        <mxCell id="0fgJyHa2E1ZW9S86TPBl-56" value="" style="endArrow=classic;html=1;rounded=0;" parent="1" edge="1">
          <mxGeometry width="50" height="50" relative="1" as="geometry">
            <mxPoint x="360" y="2080" as="sourcePoint" />
            <mxPoint x="360" y="2100" as="targetPoint" />
          </mxGeometry>
        </mxCell>
        <mxCell id="0fgJyHa2E1ZW9S86TPBl-57" value="for (int i = 0; i &amp;lt; k; ++i)" style="shape=hexagon;perimeter=hexagonPerimeter2;whiteSpace=wrap;html=1;fixedSize=1;" parent="1" vertex="1">
          <mxGeometry x="300" y="2100" width="120" height="80" as="geometry" />
        </mxCell>
        <mxCell id="0fgJyHa2E1ZW9S86TPBl-58" value="" style="endArrow=classic;html=1;rounded=0;" parent="1" target="0fgJyHa2E1ZW9S86TPBl-59" edge="1">
          <mxGeometry width="50" height="50" relative="1" as="geometry">
            <mxPoint x="360" y="2180" as="sourcePoint" />
            <mxPoint x="360" y="2200" as="targetPoint" />
          </mxGeometry>
        </mxCell>
        <mxCell id="0fgJyHa2E1ZW9S86TPBl-59" value="cin &amp;gt;&amp;gt; elementsToAdd[i];" style="shape=parallelogram;perimeter=parallelogramPerimeter;whiteSpace=wrap;html=1;fixedSize=1;" parent="1" vertex="1">
          <mxGeometry x="300" y="2200" width="120" height="60" as="geometry" />
        </mxCell>
        <mxCell id="0fgJyHa2E1ZW9S86TPBl-60" value="" style="endArrow=classic;html=1;rounded=0;entryX=0;entryY=0.5;entryDx=0;entryDy=0;" parent="1" target="0fgJyHa2E1ZW9S86TPBl-57" edge="1">
          <mxGeometry width="50" height="50" relative="1" as="geometry">
            <mxPoint x="360" y="2260" as="sourcePoint" />
            <mxPoint x="280" y="2140" as="targetPoint" />
            <Array as="points">
              <mxPoint x="360" y="2300" />
              <mxPoint x="280" y="2300" />
              <mxPoint x="280" y="2140" />
            </Array>
          </mxGeometry>
        </mxCell>
        <mxCell id="0fgJyHa2E1ZW9S86TPBl-61" value="" style="endArrow=classic;html=1;rounded=0;" parent="1" edge="1">
          <mxGeometry width="50" height="50" relative="1" as="geometry">
            <mxPoint x="420" y="2140" as="sourcePoint" />
            <mxPoint x="360" y="2350" as="targetPoint" />
            <Array as="points">
              <mxPoint x="470" y="2140" />
              <mxPoint x="470" y="2330" />
              <mxPoint x="360" y="2330" />
            </Array>
          </mxGeometry>
        </mxCell>
        <mxCell id="0fgJyHa2E1ZW9S86TPBl-62" value="arr = addElements(arr, size, indexToAdd, elementsToAdd, k);" style="rounded=0;whiteSpace=wrap;html=1;" parent="1" vertex="1">
          <mxGeometry x="305" y="2350" width="120" height="60" as="geometry" />
        </mxCell>
        <mxCell id="0fgJyHa2E1ZW9S86TPBl-63" value="" style="endArrow=classic;html=1;rounded=0;" parent="1" target="0fgJyHa2E1ZW9S86TPBl-64" edge="1">
          <mxGeometry width="50" height="50" relative="1" as="geometry">
            <mxPoint x="360" y="2410" as="sourcePoint" />
            <mxPoint x="360" y="2430" as="targetPoint" />
          </mxGeometry>
        </mxCell>
        <mxCell id="0fgJyHa2E1ZW9S86TPBl-64" value="cout &amp;lt;&amp;lt; &quot;Массив после добавления элементов: &quot;;" style="shape=parallelogram;perimeter=parallelogramPerimeter;whiteSpace=wrap;html=1;fixedSize=1;" parent="1" vertex="1">
          <mxGeometry x="300" y="2430" width="120" height="60" as="geometry" />
        </mxCell>
        <mxCell id="0fgJyHa2E1ZW9S86TPBl-65" value="" style="endArrow=classic;html=1;rounded=0;" parent="1" edge="1">
          <mxGeometry width="50" height="50" relative="1" as="geometry">
            <mxPoint x="360" y="2490" as="sourcePoint" />
            <mxPoint x="360" y="2510" as="targetPoint" />
          </mxGeometry>
        </mxCell>
        <mxCell id="0fgJyHa2E1ZW9S86TPBl-66" value="for (int i = 0; i &amp;lt; size; ++i)" style="shape=hexagon;perimeter=hexagonPerimeter2;whiteSpace=wrap;html=1;fixedSize=1;" parent="1" vertex="1">
          <mxGeometry x="300" y="2510" width="120" height="80" as="geometry" />
        </mxCell>
        <mxCell id="0fgJyHa2E1ZW9S86TPBl-67" value="" style="endArrow=classic;html=1;rounded=0;" parent="1" source="0fgJyHa2E1ZW9S86TPBl-82" edge="1">
          <mxGeometry width="50" height="50" relative="1" as="geometry">
            <mxPoint x="360" y="2590" as="sourcePoint" />
            <mxPoint x="360" y="2610" as="targetPoint" />
          </mxGeometry>
        </mxCell>
        <mxCell id="0fgJyHa2E1ZW9S86TPBl-68" value="cout &amp;lt;&amp;lt; arr[i] &amp;lt;&amp;lt; &quot; &quot;;" style="shape=parallelogram;perimeter=parallelogramPerimeter;whiteSpace=wrap;html=1;fixedSize=1;" parent="1" vertex="1">
          <mxGeometry x="300" y="2610" width="120" height="60" as="geometry" />
        </mxCell>
        <mxCell id="0fgJyHa2E1ZW9S86TPBl-69" value="" style="endArrow=classic;html=1;rounded=0;entryX=0;entryY=0.5;entryDx=0;entryDy=0;" parent="1" target="0fgJyHa2E1ZW9S86TPBl-66" edge="1">
          <mxGeometry width="50" height="50" relative="1" as="geometry">
            <mxPoint x="360" y="2670" as="sourcePoint" />
            <mxPoint x="250" y="2550" as="targetPoint" />
            <Array as="points">
              <mxPoint x="360" y="2720" />
              <mxPoint x="250" y="2720" />
              <mxPoint x="250" y="2550" />
            </Array>
          </mxGeometry>
        </mxCell>
        <mxCell id="0fgJyHa2E1ZW9S86TPBl-70" value="" style="endArrow=classic;html=1;rounded=0;" parent="1" edge="1">
          <mxGeometry width="50" height="50" relative="1" as="geometry">
            <mxPoint x="420" y="2550" as="sourcePoint" />
            <mxPoint x="360" y="2780" as="targetPoint" />
            <Array as="points">
              <mxPoint x="480" y="2550" />
              <mxPoint x="480" y="2760" />
              <mxPoint x="360" y="2760" />
            </Array>
          </mxGeometry>
        </mxCell>
        <mxCell id="0fgJyHa2E1ZW9S86TPBl-71" value="cout &amp;lt;&amp;lt; endl;" style="shape=parallelogram;perimeter=parallelogramPerimeter;whiteSpace=wrap;html=1;fixedSize=1;" parent="1" vertex="1">
          <mxGeometry x="300" y="2780" width="120" height="60" as="geometry" />
        </mxCell>
        <mxCell id="0fgJyHa2E1ZW9S86TPBl-72" value="" style="endArrow=classic;html=1;rounded=0;" parent="1" target="0fgJyHa2E1ZW9S86TPBl-73" edge="1">
          <mxGeometry width="50" height="50" relative="1" as="geometry">
            <mxPoint x="360" y="2840" as="sourcePoint" />
            <mxPoint x="360" y="2860" as="targetPoint" />
          </mxGeometry>
        </mxCell>
        <mxCell id="0fgJyHa2E1ZW9S86TPBl-73" value="arr = nullptr;" style="rounded=0;whiteSpace=wrap;html=1;" parent="1" vertex="1">
          <mxGeometry x="300" y="2860" width="120" height="60" as="geometry" />
        </mxCell>
        <mxCell id="0fgJyHa2E1ZW9S86TPBl-74" value="" style="endArrow=classic;html=1;rounded=0;" parent="1" edge="1">
          <mxGeometry width="50" height="50" relative="1" as="geometry">
            <mxPoint x="360" y="2920" as="sourcePoint" />
            <mxPoint x="360" y="2940" as="targetPoint" />
          </mxGeometry>
        </mxCell>
        <mxCell id="0fgJyHa2E1ZW9S86TPBl-75" value="&lt;div&gt;&amp;nbsp; &amp;nbsp;&lt;/div&gt;&lt;div&gt;return 0;&lt;/div&gt;&lt;div&gt;&lt;br&gt;&lt;/div&gt;" style="ellipse;whiteSpace=wrap;html=1;" parent="1" vertex="1">
          <mxGeometry x="300" y="2940" width="120" height="80" as="geometry" />
        </mxCell>
        <mxCell id="0fgJyHa2E1ZW9S86TPBl-76" value="{" style="text;html=1;align=center;verticalAlign=middle;whiteSpace=wrap;rounded=0;" parent="1" vertex="1">
          <mxGeometry x="320" y="2180" width="50" height="20" as="geometry" />
        </mxCell>
        <mxCell id="0fgJyHa2E1ZW9S86TPBl-77" value="}" style="text;html=1;align=center;verticalAlign=middle;whiteSpace=wrap;rounded=0;" parent="1" vertex="1">
          <mxGeometry x="420" y="2110" width="60" height="30" as="geometry" />
        </mxCell>
        <mxCell id="0fgJyHa2E1ZW9S86TPBl-78" value="{" style="text;html=1;align=center;verticalAlign=middle;whiteSpace=wrap;rounded=0;" parent="1" vertex="1">
          <mxGeometry x="320" y="1280" width="50" height="20" as="geometry" />
        </mxCell>
        <mxCell id="0fgJyHa2E1ZW9S86TPBl-79" value="}" style="text;html=1;align=center;verticalAlign=middle;whiteSpace=wrap;rounded=0;" parent="1" vertex="1">
          <mxGeometry x="420" y="1210" width="60" height="30" as="geometry" />
        </mxCell>
        <mxCell id="0fgJyHa2E1ZW9S86TPBl-80" value="{" style="text;html=1;align=center;verticalAlign=middle;whiteSpace=wrap;rounded=0;" parent="1" vertex="1">
          <mxGeometry x="310" y="600" width="50" height="20" as="geometry" />
        </mxCell>
        <mxCell id="0fgJyHa2E1ZW9S86TPBl-81" value="}" style="text;html=1;align=center;verticalAlign=middle;whiteSpace=wrap;rounded=0;" parent="1" vertex="1">
          <mxGeometry x="400" y="530" width="60" height="30" as="geometry" />
        </mxCell>
        <mxCell id="0fgJyHa2E1ZW9S86TPBl-83" value="" style="endArrow=classic;html=1;rounded=0;" parent="1" target="0fgJyHa2E1ZW9S86TPBl-82" edge="1">
          <mxGeometry width="50" height="50" relative="1" as="geometry">
            <mxPoint x="360" y="2590" as="sourcePoint" />
            <mxPoint x="360" y="2610" as="targetPoint" />
          </mxGeometry>
        </mxCell>
        <mxCell id="0fgJyHa2E1ZW9S86TPBl-82" value="{" style="text;html=1;align=center;verticalAlign=middle;whiteSpace=wrap;rounded=0;" parent="1" vertex="1">
          <mxGeometry x="320" y="2590" width="50" height="20" as="geometry" />
        </mxCell>
        <mxCell id="0fgJyHa2E1ZW9S86TPBl-84" value="}" style="text;html=1;align=center;verticalAlign=middle;whiteSpace=wrap;rounded=0;" parent="1" vertex="1">
          <mxGeometry x="420" y="2520" width="60" height="30" as="geometry" />
        </mxCell>
        <mxCell id="0fgJyHa2E1ZW9S86TPBl-85" value="{" style="text;html=1;align=center;verticalAlign=middle;whiteSpace=wrap;rounded=0;" parent="1" vertex="1">
          <mxGeometry x="300" y="100" width="45" height="20" as="geometry" />
        </mxCell>
        <mxCell id="0fgJyHa2E1ZW9S86TPBl-86" value="}" style="text;html=1;align=center;verticalAlign=middle;whiteSpace=wrap;rounded=0;" parent="1" vertex="1">
          <mxGeometry x="350" y="3020" width="60" height="30" as="geometry" />
        </mxCell>
        <mxCell id="0fgJyHa2E1ZW9S86TPBl-87" value="int* deleteElement(int* arr, int&amp;amp; size, int indexToDelete)" style="rounded=0;whiteSpace=wrap;html=1;" parent="1" vertex="1">
          <mxGeometry x="755" y="20" width="120" height="60" as="geometry" />
        </mxCell>
        <mxCell id="0fgJyHa2E1ZW9S86TPBl-88" value="" style="endArrow=classic;html=1;rounded=0;" parent="1" edge="1">
          <mxGeometry width="50" height="50" relative="1" as="geometry">
            <mxPoint x="815" y="80" as="sourcePoint" />
            <mxPoint x="815" y="100" as="targetPoint" />
          </mxGeometry>
        </mxCell>
        <mxCell id="0fgJyHa2E1ZW9S86TPBl-89" value="if (indexToDelete &amp;lt; 0 || indexToDelete &amp;gt;= size)" style="rhombus;whiteSpace=wrap;html=1;" parent="1" vertex="1">
          <mxGeometry x="720" y="100" width="190" height="80" as="geometry" />
        </mxCell>
        <mxCell id="0fgJyHa2E1ZW9S86TPBl-90" value="" style="endArrow=classic;html=1;rounded=0;" parent="1" edge="1">
          <mxGeometry width="50" height="50" relative="1" as="geometry">
            <mxPoint x="720" y="140" as="sourcePoint" />
            <mxPoint x="660" y="200" as="targetPoint" />
            <Array as="points">
              <mxPoint x="660" y="140" />
            </Array>
          </mxGeometry>
        </mxCell>
        <mxCell id="0fgJyHa2E1ZW9S86TPBl-91" value="1" style="text;html=1;align=center;verticalAlign=middle;whiteSpace=wrap;rounded=0;" parent="1" vertex="1">
          <mxGeometry x="660" y="110" width="60" height="30" as="geometry" />
        </mxCell>
        <mxCell id="0fgJyHa2E1ZW9S86TPBl-92" value="" style="endArrow=classic;html=1;rounded=0;" parent="1" edge="1">
          <mxGeometry width="50" height="50" relative="1" as="geometry">
            <mxPoint x="910" y="140" as="sourcePoint" />
            <mxPoint x="960" y="200" as="targetPoint" />
            <Array as="points">
              <mxPoint x="960" y="140" />
              <mxPoint x="960" y="170" />
            </Array>
          </mxGeometry>
        </mxCell>
        <mxCell id="0fgJyHa2E1ZW9S86TPBl-93" value="0" style="text;html=1;align=center;verticalAlign=middle;whiteSpace=wrap;rounded=0;" parent="1" vertex="1">
          <mxGeometry x="900" y="110" width="60" height="30" as="geometry" />
        </mxCell>
        <mxCell id="0fgJyHa2E1ZW9S86TPBl-94" value="cout &amp;lt;&amp;lt; &quot;Ошибка: Неверный индекс для удаления.&quot; &amp;lt;&amp;lt; endl;" style="shape=parallelogram;perimeter=parallelogramPerimeter;whiteSpace=wrap;html=1;fixedSize=1;" parent="1" vertex="1">
          <mxGeometry x="590" y="200" width="140" height="60" as="geometry" />
        </mxCell>
        <mxCell id="0fgJyHa2E1ZW9S86TPBl-95" value="" style="endArrow=classic;html=1;rounded=0;" parent="1" edge="1">
          <mxGeometry width="50" height="50" relative="1" as="geometry">
            <mxPoint x="660" y="260" as="sourcePoint" />
            <mxPoint x="660" y="280" as="targetPoint" />
          </mxGeometry>
        </mxCell>
        <mxCell id="0fgJyHa2E1ZW9S86TPBl-96" value="return arr;" style="ellipse;whiteSpace=wrap;html=1;" parent="1" vertex="1">
          <mxGeometry x="600" y="280" width="120" height="80" as="geometry" />
        </mxCell>
        <mxCell id="0fgJyHa2E1ZW9S86TPBl-97" value="int* newArr = new int[size - 1];" style="rounded=0;whiteSpace=wrap;html=1;" parent="1" vertex="1">
          <mxGeometry x="900" y="200" width="120" height="60" as="geometry" />
        </mxCell>
        <mxCell id="0fgJyHa2E1ZW9S86TPBl-98" value="" style="endArrow=classic;html=1;rounded=0;" parent="1" target="0fgJyHa2E1ZW9S86TPBl-99" edge="1">
          <mxGeometry width="50" height="50" relative="1" as="geometry">
            <mxPoint x="960" y="260" as="sourcePoint" />
            <mxPoint x="960" y="280" as="targetPoint" />
          </mxGeometry>
        </mxCell>
        <mxCell id="0fgJyHa2E1ZW9S86TPBl-99" value="for (int i = 0, j = 0; i &amp;lt; size; ++i)" style="shape=hexagon;perimeter=hexagonPerimeter2;whiteSpace=wrap;html=1;fixedSize=1;" parent="1" vertex="1">
          <mxGeometry x="900" y="280" width="120" height="80" as="geometry" />
        </mxCell>
        <mxCell id="0fgJyHa2E1ZW9S86TPBl-100" value="" style="endArrow=classic;html=1;rounded=0;" parent="1" edge="1">
          <mxGeometry width="50" height="50" relative="1" as="geometry">
            <mxPoint x="960" y="360" as="sourcePoint" />
            <mxPoint x="960" y="380" as="targetPoint" />
          </mxGeometry>
        </mxCell>
        <mxCell id="0fgJyHa2E1ZW9S86TPBl-101" value="if (i != indexToDelete)" style="rhombus;whiteSpace=wrap;html=1;" parent="1" vertex="1">
          <mxGeometry x="900" y="380" width="120" height="80" as="geometry" />
        </mxCell>
        <mxCell id="0fgJyHa2E1ZW9S86TPBl-102" value="" style="endArrow=classic;html=1;rounded=0;" parent="1" edge="1">
          <mxGeometry width="50" height="50" relative="1" as="geometry">
            <mxPoint x="900" y="420" as="sourcePoint" />
            <mxPoint x="870" y="440" as="targetPoint" />
            <Array as="points">
              <mxPoint x="870" y="420" />
            </Array>
          </mxGeometry>
        </mxCell>
        <mxCell id="0fgJyHa2E1ZW9S86TPBl-103" value="newArr[j++] = arr[i];" style="rounded=0;whiteSpace=wrap;html=1;" parent="1" vertex="1">
          <mxGeometry x="800" y="440" width="120" height="60" as="geometry" />
        </mxCell>
        <mxCell id="0fgJyHa2E1ZW9S86TPBl-104" value="1" style="text;html=1;align=center;verticalAlign=middle;whiteSpace=wrap;rounded=0;" parent="1" vertex="1">
          <mxGeometry x="860" y="390" width="60" height="30" as="geometry" />
        </mxCell>
        <mxCell id="0fgJyHa2E1ZW9S86TPBl-106" value="" style="endArrow=classic;html=1;rounded=0;" parent="1" edge="1">
          <mxGeometry width="50" height="50" relative="1" as="geometry">
            <mxPoint x="1020" y="420" as="sourcePoint" />
            <mxPoint x="960" y="560" as="targetPoint" />
            <Array as="points">
              <mxPoint x="1060" y="420" />
              <mxPoint x="1060" y="560" />
            </Array>
          </mxGeometry>
        </mxCell>
        <mxCell id="0fgJyHa2E1ZW9S86TPBl-107" value="0" style="text;html=1;align=center;verticalAlign=middle;whiteSpace=wrap;rounded=0;" parent="1" vertex="1">
          <mxGeometry x="1010" y="390" width="60" height="30" as="geometry" />
        </mxCell>
        <mxCell id="0fgJyHa2E1ZW9S86TPBl-108" value="" style="endArrow=classic;html=1;rounded=0;" parent="1" edge="1">
          <mxGeometry width="50" height="50" relative="1" as="geometry">
            <mxPoint x="870" y="500" as="sourcePoint" />
            <mxPoint x="960" y="560" as="targetPoint" />
            <Array as="points">
              <mxPoint x="870" y="560" />
            </Array>
          </mxGeometry>
        </mxCell>
        <mxCell id="0fgJyHa2E1ZW9S86TPBl-110" value="" style="endArrow=classic;html=1;rounded=0;entryX=0;entryY=0.5;entryDx=0;entryDy=0;" parent="1" target="0fgJyHa2E1ZW9S86TPBl-99" edge="1">
          <mxGeometry width="50" height="50" relative="1" as="geometry">
            <mxPoint x="960" y="560" as="sourcePoint" />
            <mxPoint x="850" y="320" as="targetPoint" />
            <Array as="points">
              <mxPoint x="960" y="600" />
              <mxPoint x="760" y="600" />
              <mxPoint x="760" y="320" />
            </Array>
          </mxGeometry>
        </mxCell>
        <mxCell id="0fgJyHa2E1ZW9S86TPBl-111" value="" style="endArrow=classic;html=1;rounded=0;" parent="1" edge="1">
          <mxGeometry width="50" height="50" relative="1" as="geometry">
            <mxPoint x="1020" y="320" as="sourcePoint" />
            <mxPoint x="960" y="680" as="targetPoint" />
            <Array as="points">
              <mxPoint x="1120" y="320" />
              <mxPoint x="1120" y="650" />
              <mxPoint x="960" y="650" />
            </Array>
          </mxGeometry>
        </mxCell>
        <mxCell id="0fgJyHa2E1ZW9S86TPBl-112" value="size--;" style="rounded=0;whiteSpace=wrap;html=1;" parent="1" vertex="1">
          <mxGeometry x="900" y="680" width="120" height="60" as="geometry" />
        </mxCell>
        <mxCell id="0fgJyHa2E1ZW9S86TPBl-113" value="" style="endArrow=classic;html=1;rounded=0;" parent="1" edge="1">
          <mxGeometry width="50" height="50" relative="1" as="geometry">
            <mxPoint x="960" y="740" as="sourcePoint" />
            <mxPoint x="960" y="760" as="targetPoint" />
          </mxGeometry>
        </mxCell>
        <mxCell id="0fgJyHa2E1ZW9S86TPBl-114" value="return newArr;" style="ellipse;whiteSpace=wrap;html=1;" parent="1" vertex="1">
          <mxGeometry x="900" y="760" width="120" height="80" as="geometry" />
        </mxCell>
        <mxCell id="0fgJyHa2E1ZW9S86TPBl-115" value="int* addElements(int* arr, int&amp;amp; size, int indexToAdd, int* elementsToAdd, int k)" style="rounded=0;whiteSpace=wrap;html=1;" parent="1" vertex="1">
          <mxGeometry x="1410" y="20" width="120" height="60" as="geometry" />
        </mxCell>
        <mxCell id="0fgJyHa2E1ZW9S86TPBl-116" value="" style="endArrow=classic;html=1;rounded=0;" parent="1" edge="1">
          <mxGeometry width="50" height="50" relative="1" as="geometry">
            <mxPoint x="1470" y="80" as="sourcePoint" />
            <mxPoint x="1470" y="100" as="targetPoint" />
          </mxGeometry>
        </mxCell>
        <mxCell id="0fgJyHa2E1ZW9S86TPBl-117" value="if (indexToAdd &amp;lt; 0 || indexToAdd &amp;gt; size)" style="rhombus;whiteSpace=wrap;html=1;" parent="1" vertex="1">
          <mxGeometry x="1395" y="100" width="150" height="80" as="geometry" />
        </mxCell>
        <mxCell id="0fgJyHa2E1ZW9S86TPBl-118" value="" style="endArrow=classic;html=1;rounded=0;" parent="1" edge="1">
          <mxGeometry width="50" height="50" relative="1" as="geometry">
            <mxPoint x="1395" y="140" as="sourcePoint" />
            <mxPoint x="1360" y="190" as="targetPoint" />
            <Array as="points">
              <mxPoint x="1360" y="140" />
            </Array>
          </mxGeometry>
        </mxCell>
        <mxCell id="0fgJyHa2E1ZW9S86TPBl-119" value="1" style="text;html=1;align=center;verticalAlign=middle;whiteSpace=wrap;rounded=0;" parent="1" vertex="1">
          <mxGeometry x="1350" y="110" width="60" height="30" as="geometry" />
        </mxCell>
        <mxCell id="0fgJyHa2E1ZW9S86TPBl-120" value="" style="endArrow=classic;html=1;rounded=0;" parent="1" edge="1">
          <mxGeometry width="50" height="50" relative="1" as="geometry">
            <mxPoint x="1545" y="140" as="sourcePoint" />
            <mxPoint x="1590" y="190" as="targetPoint" />
            <Array as="points">
              <mxPoint x="1590" y="140" />
            </Array>
          </mxGeometry>
        </mxCell>
        <mxCell id="0fgJyHa2E1ZW9S86TPBl-121" value="0" style="text;html=1;align=center;verticalAlign=middle;whiteSpace=wrap;rounded=0;" parent="1" vertex="1">
          <mxGeometry x="1540" y="110" width="60" height="30" as="geometry" />
        </mxCell>
        <mxCell id="0fgJyHa2E1ZW9S86TPBl-122" value="cout &amp;lt;&amp;lt; &quot;Ошибка: Неверный индекс для вставки.&quot; &amp;lt;&amp;lt; endl;" style="shape=parallelogram;perimeter=parallelogramPerimeter;whiteSpace=wrap;html=1;fixedSize=1;" parent="1" vertex="1">
          <mxGeometry x="1300" y="190" width="120" height="60" as="geometry" />
        </mxCell>
        <mxCell id="0fgJyHa2E1ZW9S86TPBl-123" value="" style="endArrow=classic;html=1;rounded=0;" parent="1" edge="1">
          <mxGeometry width="50" height="50" relative="1" as="geometry">
            <mxPoint x="1360" y="250" as="sourcePoint" />
            <mxPoint x="1360" y="270" as="targetPoint" />
          </mxGeometry>
        </mxCell>
        <mxCell id="0fgJyHa2E1ZW9S86TPBl-124" value="return arr;" style="ellipse;whiteSpace=wrap;html=1;" parent="1" vertex="1">
          <mxGeometry x="1300" y="270" width="120" height="80" as="geometry" />
        </mxCell>
        <mxCell id="0fgJyHa2E1ZW9S86TPBl-125" value="int* newArr = new int[size + k];" style="rounded=0;whiteSpace=wrap;html=1;" parent="1" vertex="1">
          <mxGeometry x="1534" y="190" width="120" height="60" as="geometry" />
        </mxCell>
        <mxCell id="0fgJyHa2E1ZW9S86TPBl-126" value="" style="endArrow=classic;html=1;rounded=0;" parent="1" edge="1">
          <mxGeometry width="50" height="50" relative="1" as="geometry">
            <mxPoint x="1590" y="250" as="sourcePoint" />
            <mxPoint x="1590" y="270" as="targetPoint" />
          </mxGeometry>
        </mxCell>
        <mxCell id="0fgJyHa2E1ZW9S86TPBl-127" value="for (int i = 0; i &amp;lt; indexToAdd; ++i)" style="shape=hexagon;perimeter=hexagonPerimeter2;whiteSpace=wrap;html=1;fixedSize=1;" parent="1" vertex="1">
          <mxGeometry x="1534" y="270" width="120" height="80" as="geometry" />
        </mxCell>
        <mxCell id="0fgJyHa2E1ZW9S86TPBl-128" value="" style="endArrow=classic;html=1;rounded=0;" parent="1" source="0fgJyHa2E1ZW9S86TPBl-156" edge="1">
          <mxGeometry width="50" height="50" relative="1" as="geometry">
            <mxPoint x="1590" y="350" as="sourcePoint" />
            <mxPoint x="1590" y="370" as="targetPoint" />
          </mxGeometry>
        </mxCell>
        <mxCell id="0fgJyHa2E1ZW9S86TPBl-129" value="newArr[i] = arr[i];" style="rounded=0;whiteSpace=wrap;html=1;" parent="1" vertex="1">
          <mxGeometry x="1534" y="370" width="120" height="60" as="geometry" />
        </mxCell>
        <mxCell id="0fgJyHa2E1ZW9S86TPBl-130" value="" style="endArrow=classic;html=1;rounded=0;entryX=0;entryY=0.5;entryDx=0;entryDy=0;" parent="1" target="0fgJyHa2E1ZW9S86TPBl-127" edge="1">
          <mxGeometry width="50" height="50" relative="1" as="geometry">
            <mxPoint x="1590" y="430" as="sourcePoint" />
            <mxPoint x="1490" y="310" as="targetPoint" />
            <Array as="points">
              <mxPoint x="1590" y="470" />
              <mxPoint x="1490" y="470" />
              <mxPoint x="1490" y="310" />
            </Array>
          </mxGeometry>
        </mxCell>
        <mxCell id="0fgJyHa2E1ZW9S86TPBl-131" value="" style="endArrow=classic;html=1;rounded=0;" parent="1" edge="1">
          <mxGeometry width="50" height="50" relative="1" as="geometry">
            <mxPoint x="1654" y="310" as="sourcePoint" />
            <mxPoint x="1600" y="540" as="targetPoint" />
            <Array as="points">
              <mxPoint x="1690" y="310" />
              <mxPoint x="1690" y="520" />
              <mxPoint x="1600" y="520" />
            </Array>
          </mxGeometry>
        </mxCell>
        <mxCell id="0fgJyHa2E1ZW9S86TPBl-138" style="edgeStyle=orthogonalEdgeStyle;rounded=0;orthogonalLoop=1;jettySize=auto;html=1;exitX=0.5;exitY=1;exitDx=0;exitDy=0;entryX=0.5;entryY=0;entryDx=0;entryDy=0;" parent="1" source="0fgJyHa2E1ZW9S86TPBl-134" target="0fgJyHa2E1ZW9S86TPBl-135" edge="1">
          <mxGeometry relative="1" as="geometry" />
        </mxCell>
        <mxCell id="0fgJyHa2E1ZW9S86TPBl-143" style="edgeStyle=orthogonalEdgeStyle;rounded=0;orthogonalLoop=1;jettySize=auto;html=1;exitX=1;exitY=0.5;exitDx=0;exitDy=0;entryX=0.5;entryY=0;entryDx=0;entryDy=0;" parent="1" source="0fgJyHa2E1ZW9S86TPBl-134" target="0fgJyHa2E1ZW9S86TPBl-142" edge="1">
          <mxGeometry relative="1" as="geometry">
            <Array as="points">
              <mxPoint x="1674" y="580" />
              <mxPoint x="1674" y="750" />
              <mxPoint x="1594" y="750" />
            </Array>
          </mxGeometry>
        </mxCell>
        <mxCell id="0fgJyHa2E1ZW9S86TPBl-134" value="for (int i = 0; i &amp;lt; k; ++i)" style="shape=hexagon;perimeter=hexagonPerimeter2;whiteSpace=wrap;html=1;fixedSize=1;" parent="1" vertex="1">
          <mxGeometry x="1534" y="540" width="120" height="80" as="geometry" />
        </mxCell>
        <mxCell id="0fgJyHa2E1ZW9S86TPBl-140" style="edgeStyle=orthogonalEdgeStyle;rounded=0;orthogonalLoop=1;jettySize=auto;html=1;exitX=0.5;exitY=1;exitDx=0;exitDy=0;entryX=0;entryY=0.5;entryDx=0;entryDy=0;" parent="1" source="0fgJyHa2E1ZW9S86TPBl-135" target="0fgJyHa2E1ZW9S86TPBl-134" edge="1">
          <mxGeometry relative="1" as="geometry" />
        </mxCell>
        <mxCell id="0fgJyHa2E1ZW9S86TPBl-135" value="newArr[indexToAdd + i] = elementsToAdd[i];" style="rounded=0;whiteSpace=wrap;html=1;" parent="1" vertex="1">
          <mxGeometry x="1534" y="650" width="120" height="60" as="geometry" />
        </mxCell>
        <mxCell id="0fgJyHa2E1ZW9S86TPBl-145" style="edgeStyle=orthogonalEdgeStyle;rounded=0;orthogonalLoop=1;jettySize=auto;html=1;exitX=0.5;exitY=1;exitDx=0;exitDy=0;entryX=0.5;entryY=0;entryDx=0;entryDy=0;" parent="1" source="0fgJyHa2E1ZW9S86TPBl-142" target="0fgJyHa2E1ZW9S86TPBl-144" edge="1">
          <mxGeometry relative="1" as="geometry" />
        </mxCell>
        <mxCell id="0fgJyHa2E1ZW9S86TPBl-148" style="edgeStyle=orthogonalEdgeStyle;rounded=0;orthogonalLoop=1;jettySize=auto;html=1;exitX=1;exitY=0.5;exitDx=0;exitDy=0;entryX=0.5;entryY=0;entryDx=0;entryDy=0;" parent="1" source="0fgJyHa2E1ZW9S86TPBl-142" target="0fgJyHa2E1ZW9S86TPBl-147" edge="1">
          <mxGeometry relative="1" as="geometry">
            <Array as="points">
              <mxPoint x="1674" y="810" />
              <mxPoint x="1674" y="960" />
              <mxPoint x="1594" y="960" />
            </Array>
          </mxGeometry>
        </mxCell>
        <mxCell id="0fgJyHa2E1ZW9S86TPBl-142" value="for (int i = indexToAdd; i &amp;lt; size; ++i)" style="shape=hexagon;perimeter=hexagonPerimeter2;whiteSpace=wrap;html=1;fixedSize=1;" parent="1" vertex="1">
          <mxGeometry x="1534" y="770" width="120" height="80" as="geometry" />
        </mxCell>
        <mxCell id="0fgJyHa2E1ZW9S86TPBl-146" style="edgeStyle=orthogonalEdgeStyle;rounded=0;orthogonalLoop=1;jettySize=auto;html=1;exitX=0.5;exitY=1;exitDx=0;exitDy=0;entryX=0;entryY=0.5;entryDx=0;entryDy=0;" parent="1" source="0fgJyHa2E1ZW9S86TPBl-144" target="0fgJyHa2E1ZW9S86TPBl-142" edge="1">
          <mxGeometry relative="1" as="geometry" />
        </mxCell>
        <mxCell id="0fgJyHa2E1ZW9S86TPBl-144" value="newArr[indexToAdd + k + (i - indexToAdd)] = arr[i];" style="rounded=0;whiteSpace=wrap;html=1;" parent="1" vertex="1">
          <mxGeometry x="1534" y="870" width="120" height="60" as="geometry" />
        </mxCell>
        <mxCell id="0fgJyHa2E1ZW9S86TPBl-147" value="size += k;" style="rounded=0;whiteSpace=wrap;html=1;" parent="1" vertex="1">
          <mxGeometry x="1534" y="980" width="120" height="60" as="geometry" />
        </mxCell>
        <mxCell id="0fgJyHa2E1ZW9S86TPBl-149" value="" style="endArrow=classic;html=1;rounded=0;" parent="1" edge="1">
          <mxGeometry width="50" height="50" relative="1" as="geometry">
            <mxPoint x="1590" y="1040" as="sourcePoint" />
            <mxPoint x="1590" y="1070" as="targetPoint" />
          </mxGeometry>
        </mxCell>
        <mxCell id="0fgJyHa2E1ZW9S86TPBl-150" value="return newArr;" style="ellipse;whiteSpace=wrap;html=1;" parent="1" vertex="1">
          <mxGeometry x="1534" y="1070" width="120" height="80" as="geometry" />
        </mxCell>
        <mxCell id="0fgJyHa2E1ZW9S86TPBl-151" value="{" style="text;html=1;align=center;verticalAlign=middle;whiteSpace=wrap;rounded=0;" parent="1" vertex="1">
          <mxGeometry x="910" y="370" width="50" height="10" as="geometry" />
        </mxCell>
        <mxCell id="0fgJyHa2E1ZW9S86TPBl-152" value="}" style="text;html=1;align=center;verticalAlign=middle;whiteSpace=wrap;rounded=0;" parent="1" vertex="1">
          <mxGeometry x="1050" y="290" width="60" height="30" as="geometry" />
        </mxCell>
        <mxCell id="0fgJyHa2E1ZW9S86TPBl-153" value="{" style="text;html=1;align=center;verticalAlign=middle;whiteSpace=wrap;rounded=0;" parent="1" vertex="1">
          <mxGeometry x="770" y="80" width="50" height="20" as="geometry" />
        </mxCell>
        <mxCell id="0fgJyHa2E1ZW9S86TPBl-155" value="}" style="text;html=1;align=center;verticalAlign=middle;whiteSpace=wrap;rounded=0;" parent="1" vertex="1">
          <mxGeometry x="950" y="840" width="60" height="30" as="geometry" />
        </mxCell>
        <mxCell id="0fgJyHa2E1ZW9S86TPBl-157" value="" style="endArrow=classic;html=1;rounded=0;" parent="1" target="0fgJyHa2E1ZW9S86TPBl-156" edge="1">
          <mxGeometry width="50" height="50" relative="1" as="geometry">
            <mxPoint x="1590" y="350" as="sourcePoint" />
            <mxPoint x="1590" y="370" as="targetPoint" />
          </mxGeometry>
        </mxCell>
        <mxCell id="0fgJyHa2E1ZW9S86TPBl-156" value="{" style="text;html=1;align=center;verticalAlign=middle;whiteSpace=wrap;rounded=0;" parent="1" vertex="1">
          <mxGeometry x="1540" y="350" width="50" height="20" as="geometry" />
        </mxCell>
        <mxCell id="0fgJyHa2E1ZW9S86TPBl-158" value="}" style="text;html=1;align=center;verticalAlign=middle;whiteSpace=wrap;rounded=0;" parent="1" vertex="1">
          <mxGeometry x="1640" y="280" width="60" height="30" as="geometry" />
        </mxCell>
        <mxCell id="0fgJyHa2E1ZW9S86TPBl-159" value="{" style="text;html=1;align=center;verticalAlign=middle;whiteSpace=wrap;rounded=0;" parent="1" vertex="1">
          <mxGeometry x="1430" y="80" width="50" height="20" as="geometry" />
        </mxCell>
        <mxCell id="0fgJyHa2E1ZW9S86TPBl-161" value="}" style="text;html=1;align=center;verticalAlign=middle;whiteSpace=wrap;rounded=0;" parent="1" vertex="1">
          <mxGeometry x="1580" y="1150" width="60" height="30" as="geometry" />
        </mxCell>
        <mxCell id="0fgJyHa2E1ZW9S86TPBl-162" value="{" style="text;html=1;align=center;verticalAlign=middle;whiteSpace=wrap;rounded=0;" parent="1" vertex="1">
          <mxGeometry x="1550" y="850" width="50" height="20" as="geometry" />
        </mxCell>
        <mxCell id="0fgJyHa2E1ZW9S86TPBl-164" value="}" style="text;html=1;align=center;verticalAlign=middle;whiteSpace=wrap;rounded=0;" parent="1" vertex="1">
          <mxGeometry x="1640" y="780" width="60" height="30" as="geometry" />
        </mxCell>
        <mxCell id="0fgJyHa2E1ZW9S86TPBl-165" value="}" style="text;html=1;align=center;verticalAlign=middle;whiteSpace=wrap;rounded=0;" parent="1" vertex="1">
          <mxGeometry x="1640" y="555" width="60" height="30" as="geometry" />
        </mxCell>
        <mxCell id="0fgJyHa2E1ZW9S86TPBl-166" value="{" style="text;html=1;align=center;verticalAlign=middle;whiteSpace=wrap;rounded=0;" parent="1" vertex="1">
          <mxGeometry x="1550" y="620" width="60" height="30" as="geometry" />
        </mxCell>
        <mxCell id="xkjeJZewVvnUrQpUH8ge-1" value="" style="endArrow=classic;html=1;rounded=0;entryX=0.5;entryY=0;entryDx=0;entryDy=0;exitX=0.5;exitY=1;exitDx=0;exitDy=0;" edge="1" parent="1" source="0fgJyHa2E1ZW9S86TPBl-127" target="0fgJyHa2E1ZW9S86TPBl-129">
          <mxGeometry width="50" height="50" relative="1" as="geometry">
            <mxPoint x="1590" y="350" as="sourcePoint" />
            <mxPoint x="1640" y="300" as="targetPoint" />
          </mxGeometry>
        </mxCell>
      </root>
    </mxGraphModel>
  </diagram>
</mxfile>
